<svg width="103" height="88" viewBox="0 0 103 88" fill="none" xmlns="http://www.w3.org/2000/svg">
<path d="M35.5499 55.8499C33.0599 54.7499 32.4899 53.5799 32.2799 52.7799C32.2699 52.7399 32.2599 52.6899 32.2499 52.6499C32.2399 52.6199 32.2399 52.5999 32.2399 52.5699L32.2299 52.5299C32.2199 52.4799 32.2199 52.4399 32.2099 52.3899C32.2099 52.3699 32.2099 52.3599 32.2099 52.3399V52.2999C32.2099 52.2299 32.1999 52.1699 32.2099 52.1099C32.2099 52.0399 32.2099 51.9699 32.2199 51.9099L32.1299 51.8999L32.2299 51.8799C32.2899 51.4199 32.4699 50.9499 32.7799 50.4799L32.8299 50.4099C34.1399 48.4999 37.3399 46.6399 41.1699 45.5699C43.8699 44.8099 46.5299 44.5099 48.6399 44.7099C50.7199 44.9099 52.0199 45.5799 52.2999 46.5899C52.5999 47.6799 51.6399 49.0799 49.6699 50.4299L49.5599 50.4999L51.2599 51.7899C51.2799 51.7999 53.0199 53.0899 54.9199 51.1699C56.6899 49.1799 57.3899 47.0999 56.8999 45.2899C56.3299 43.1999 54.2499 41.6699 51.0599 40.9799C47.8899 40.2999 43.9899 40.5199 40.0799 41.6199C36.1699 42.7199 32.7099 44.5499 30.3399 46.7799C27.9599 49.0299 26.9599 51.4199 27.5299 53.5099C27.7699 54.3799 28.2799 55.1599 29.0399 55.8299H3.23991C2.84991 55.8299 2.36991 56.0699 1.97991 56.4499C0.979912 57.3999 0.489911 59.1999 0.439911 59.4099L0.409912 59.5299H19.1899V60.6699C18.5999 60.8099 9.03991 63.1999 3.56991 68.7499C2.81991 69.5099 2.71991 70.7099 3.32991 71.5899C5.32991 74.4899 10.6299 79.9399 23.6199 83.7699L23.7399 83.8099V60.6399L23.7199 60.5399V59.5299H31.1799V80.2899C31.1799 80.7899 31.4499 81.3599 31.9099 81.8499C33.1299 83.1499 35.4199 83.7299 35.5199 83.7499L35.6399 83.7799V59.5399H56.3199V60.6799C55.7299 60.8199 46.1699 63.2099 40.6999 68.7599C39.9499 69.5199 39.8499 70.7199 40.4599 71.5999C42.4599 74.4999 47.7599 79.9499 60.7499 83.7799L60.8699 83.8199V60.6399L60.8499 60.5399V59.5299H60.8699C61.2599 59.5299 61.7299 59.2999 62.1299 58.9199C63.0399 58.0399 63.5499 56.4399 63.6599 55.9499L63.6899 55.8399H35.5499V55.8499ZM19.2399 77.3699C18.3899 77.0699 13.2699 75.1599 9.31991 71.2599C9.18991 71.1299 9.10991 70.9399 9.10991 70.7599C9.10991 70.5699 9.18991 70.4099 9.32991 70.2799C10.6899 69.0399 14.3499 66.1099 19.2399 65.4499V77.3699ZM56.3599 77.3699C55.5099 77.0699 50.3899 75.1599 46.4399 71.2599C46.3099 71.1299 46.2299 70.9399 46.2299 70.7599C46.2299 70.5699 46.3099 70.4099 46.4499 70.2799C47.8099 69.0399 51.4699 66.1099 56.3599 65.4499V77.3699Z" fill="#E30B13"/>
<path d="M10.3399 87.25C11.9857 87.25 13.3199 85.9024 13.3199 84.24C13.3199 82.5776 11.9857 81.23 10.3399 81.23C8.69405 81.23 7.35986 82.5776 7.35986 84.24C7.35986 85.9024 8.69405 87.25 10.3399 87.25Z" fill="#E30B13"/>
<path d="M61.9099 22.0999L79.7499 11.8099V32.4099L61.9099 22.0999Z" fill="white"/>
<path d="M59.3298 0.839966L77.1698 11.14L59.3298 21.43V0.839966Z" fill="white"/>
<path d="M81.6899 13.74L99.5199 24.03L81.6899 34.33V13.74Z" fill="white"/>
<path d="M84.1799 35.05L102.01 24.75V45.35L84.1799 35.05Z" fill="white"/>
<path d="M81.6899 35.77L99.5199 46.06L81.6899 56.37V35.77Z" fill="white"/>
<path d="M61.9099 47.9599L79.7499 37.6699V58.2699L61.9099 47.9599Z" fill="white"/>
<path d="M79.0398 31.3499C78.9998 31.3499 78.9698 31.3399 78.9298 31.3199L63.1898 22.2299C63.1198 22.1899 63.0798 22.1199 63.0798 22.0499C63.0798 21.9699 63.1198 21.8999 63.1898 21.8699L78.9298 12.7899C78.9998 12.7499 79.0798 12.7499 79.1398 12.7899C79.2098 12.8299 79.2498 12.8999 79.2498 12.9699V31.1399C79.2498 31.2199 79.2098 31.2899 79.1398 31.3199C79.1098 31.3399 79.0798 31.3499 79.0398 31.3499ZM63.7198 22.0499L78.8198 30.7699V13.3399L63.7198 22.0499Z" fill="url(#paint0_linear)"/>
<path d="M78.9898 12.8699L63.2498 21.9399L78.9898 31.0299V12.8699Z" fill="url(#paint1_linear)"/>
<path d="M60.0098 1.99988V20.1599L75.7498 11.0799L60.0098 1.99988Z" fill="url(#paint2_linear)"/>
<path d="M60.0098 20.3699C59.9698 20.3699 59.9398 20.3599 59.8998 20.3399C59.8298 20.2999 59.7898 20.2299 59.7898 20.1599V1.99992C59.7898 1.91992 59.8298 1.84992 59.8998 1.81992C59.9698 1.77992 60.0498 1.77992 60.1098 1.81992L75.8498 10.9099C75.9198 10.9499 75.9598 11.0199 75.9598 11.0899C75.9598 11.1699 75.9198 11.2399 75.8498 11.2699L60.1098 20.3499C60.0898 20.3699 60.0498 20.3699 60.0098 20.3699ZM60.2298 2.36992V19.7999L75.3298 11.0899L60.2298 2.36992Z" fill="url(#paint3_linear)"/>
<path d="M59.9597 1.88989V20.0599L75.6997 10.9799L59.9597 1.88989Z" fill="url(#paint4_linear)"/>
<path d="M82.3696 33.0599L98.1096 23.9699L82.3696 14.8899V33.0599Z" fill="url(#paint5_linear)"/>
<path d="M82.3697 33.2299C82.3397 33.2299 82.3097 33.2199 82.2797 33.2099C82.2297 33.1799 82.1897 33.1199 82.1897 33.0599V14.8899C82.1897 14.8299 82.2197 14.7699 82.2797 14.7399C82.3297 14.7099 82.3997 14.7099 82.4597 14.7399L98.1897 23.8199C98.2397 23.8499 98.2797 23.9099 98.2797 23.9699C98.2797 24.0299 98.2497 24.0899 98.1897 24.1199L82.4597 33.2099C82.4297 33.2299 82.3997 33.2299 82.3697 33.2299ZM82.5497 15.1999V32.7499L97.7497 23.9699L82.5497 15.1999Z" fill="url(#paint6_linear)"/>
<path d="M82.3198 32.9499L98.0498 23.8699L82.3198 14.7899V32.9499Z" fill="url(#paint7_linear)"/>
<path d="M101.25 44.1699C101.23 44.1699 101.2 44.1599 101.18 44.1499L85.4499 35.0699C85.4099 35.0399 85.3799 34.9999 85.3799 34.9499C85.3799 34.8999 85.4099 34.8499 85.4499 34.8299L101.18 25.7399C101.22 25.7099 101.28 25.7099 101.32 25.7399C101.36 25.7699 101.39 25.8099 101.39 25.8599V44.0299C101.39 44.0799 101.36 44.1299 101.32 44.1499C101.3 44.1599 101.27 44.1699 101.25 44.1699ZM85.7999 34.9399L101.11 43.7699V26.0999L85.7999 34.9399Z" fill="url(#paint8_linear)"/>
<path d="M101.25 43.9699V25.7999L85.5098 34.8899L101.25 43.9699Z" fill="url(#paint9_linear)"/>
<path d="M98.1099 45.9999L82.3699 36.9199V55.0899L98.1099 45.9999Z" fill="url(#paint10_linear)"/>
<path d="M82.3699 55.31C82.3299 55.31 82.2999 55.3 82.2599 55.28C82.1899 55.24 82.1499 55.17 82.1499 55.1V36.92C82.1499 36.84 82.1899 36.77 82.2599 36.74C82.3299 36.7 82.4099 36.7 82.4699 36.74L98.1999 45.82C98.2699 45.86 98.3099 45.93 98.3099 46C98.3099 46.08 98.2699 46.15 98.1999 46.18L82.4699 55.27C82.4499 55.3 82.4099 55.31 82.3699 55.31ZM82.5899 37.29V54.72L97.6799 46L82.5899 37.29Z" fill="url(#paint11_linear)"/>
<path d="M98.0498 45.8999L82.3198 36.8199V54.9899L98.0498 45.8999Z" fill="url(#paint12_linear)"/>
<path d="M78.9398 57.1399C78.9198 57.1399 78.8898 57.1299 78.8698 57.1199L63.1298 48.0299C63.0898 47.9999 63.0598 47.9599 63.0598 47.9099C63.0598 47.8599 63.0898 47.8099 63.1298 47.7899L78.8698 38.7099C78.9098 38.6799 78.9698 38.6799 79.0098 38.7099C79.0498 38.7399 79.0798 38.7799 79.0798 38.8299V56.9999C79.0798 57.0499 79.0498 57.0999 79.0098 57.1199C78.9898 57.1299 78.9598 57.1399 78.9398 57.1399ZM63.4798 47.9099L78.7898 56.7499V39.0699L63.4798 47.9099Z" fill="url(#paint13_linear)"/>
<path d="M63.2498 47.8L78.9898 56.89V38.72L63.2498 47.8Z" fill="url(#paint14_linear)"/>
<defs>
<linearGradient id="paint0_linear" x1="63.086" y1="22.0507" x2="79.253" y2="22.0507" gradientUnits="userSpaceOnUse">
<stop stop-color="#FDD6A5"/>
<stop offset="0.5145" stop-color="#F9A719"/>
<stop offset="0.9297" stop-color="#F6921E"/>
</linearGradient>
<linearGradient id="paint1_linear" x1="63.2482" y1="21.9481" x2="78.9889" y2="21.9481" gradientUnits="userSpaceOnUse">
<stop offset="0.0272" stop-color="#F6921E"/>
<stop offset="0.5145" stop-color="#F9A719"/>
<stop offset="1" stop-color="#FDD6A5"/>
</linearGradient>
<linearGradient id="paint2_linear" x1="59.3422" y1="11.1942" x2="75.8737" y2="8.35618" gradientUnits="userSpaceOnUse">
<stop offset="0.0549" stop-color="#FCB833"/>
<stop offset="0.9254" stop-color="#FFDFA9"/>
</linearGradient>
<linearGradient id="paint3_linear" x1="59.7999" y1="11.0794" x2="75.9659" y2="11.0794" gradientUnits="userSpaceOnUse">
<stop offset="0.0369" stop-color="#FFE8C4"/>
<stop offset="0.8343" stop-color="#F3B233"/>
</linearGradient>
<linearGradient id="paint4_linear" x1="59.291" y1="11.0921" x2="75.8225" y2="8.25399" gradientUnits="userSpaceOnUse">
<stop offset="0.0549" stop-color="#FCB833"/>
<stop offset="0.9254" stop-color="#FFDFA9"/>
</linearGradient>
<linearGradient id="paint5_linear" x1="90.2389" y1="14.889" x2="90.2389" y2="33.0555" gradientUnits="userSpaceOnUse">
<stop offset="0.1" stop-color="#EF4E23"/>
<stop offset="0.1111" stop-color="#EF5023"/>
<stop offset="0.4068" stop-color="#F4801F"/>
<stop offset="0.5541" stop-color="#F6921E"/>
<stop offset="1" stop-color="#FDCF96"/>
</linearGradient>
<linearGradient id="paint6_linear" x1="82.1943" y1="23.972" x2="98.2832" y2="23.972" gradientUnits="userSpaceOnUse">
<stop offset="0.1" stop-color="#EF4E23"/>
<stop offset="0.1111" stop-color="#EF5023"/>
<stop offset="0.4068" stop-color="#F4801F"/>
<stop offset="0.5541" stop-color="#F6921E"/>
<stop offset="1" stop-color="#FDCF96"/>
</linearGradient>
<linearGradient id="paint7_linear" x1="90.188" y1="14.7868" x2="90.188" y2="32.9533" gradientUnits="userSpaceOnUse">
<stop offset="0.1" stop-color="#EF4E23"/>
<stop offset="0.1111" stop-color="#EF5023"/>
<stop offset="0.4068" stop-color="#F4801F"/>
<stop offset="0.5541" stop-color="#F6921E"/>
<stop offset="1" stop-color="#FDCF96"/>
</linearGradient>
<linearGradient id="paint8_linear" x1="85.3732" y1="34.9394" x2="101.389" y2="34.9394" gradientUnits="userSpaceOnUse">
<stop offset="0.1635" stop-color="#B63F80"/>
<stop offset="0.8157" stop-color="#5E1F70"/>
<stop offset="1" stop-color="#231E67"/>
</linearGradient>
<linearGradient id="paint9_linear" x1="92.2585" y1="28.1504" x2="99.5154" y2="42.3555" gradientUnits="userSpaceOnUse">
<stop stop-color="#231E67"/>
<stop offset="0.0709" stop-color="#3F1E6B"/>
<stop offset="0.1586" stop-color="#5E1F70"/>
<stop offset="0.6725" stop-color="#B63F80"/>
<stop offset="1" stop-color="#F5B5AF"/>
</linearGradient>
<linearGradient id="paint10_linear" x1="91.4689" y1="39.9513" x2="80.9682" y2="52.8643" gradientUnits="userSpaceOnUse">
<stop stop-color="#AE2947"/>
<stop offset="0.0669" stop-color="#BB254B"/>
<stop offset="0.2338" stop-color="#D61C53"/>
<stop offset="0.382" stop-color="#E61658"/>
<stop offset="0.4952" stop-color="#EC145A"/>
<stop offset="1" stop-color="#F7AEA5"/>
</linearGradient>
<linearGradient id="paint11_linear" x1="82.1594" y1="46.0093" x2="98.3185" y2="46.0093" gradientUnits="userSpaceOnUse">
<stop stop-color="#AE2947"/>
<stop offset="0.0669" stop-color="#BB254B"/>
<stop offset="0.2338" stop-color="#D61C53"/>
<stop offset="0.382" stop-color="#E61658"/>
<stop offset="0.4952" stop-color="#EC145A"/>
<stop offset="1" stop-color="#F7AEA5"/>
</linearGradient>
<linearGradient id="paint12_linear" x1="91.4177" y1="39.8491" x2="80.917" y2="52.7622" gradientUnits="userSpaceOnUse">
<stop stop-color="#AE2947"/>
<stop offset="0.0669" stop-color="#BB254B"/>
<stop offset="0.2338" stop-color="#D61C53"/>
<stop offset="0.382" stop-color="#E61658"/>
<stop offset="0.4952" stop-color="#EC145A"/>
<stop offset="1" stop-color="#F7AEA5"/>
</linearGradient>
<linearGradient id="paint13_linear" x1="63.0557" y1="47.9105" x2="79.0792" y2="47.9105" gradientUnits="userSpaceOnUse">
<stop offset="0.1044" stop-color="#F499A4"/>
<stop offset="0.5385" stop-color="#ED3D7F"/>
<stop offset="0.6701" stop-color="#E22D77"/>
<stop offset="0.8569" stop-color="#D71D70"/>
<stop offset="1" stop-color="#D3176D"/>
</linearGradient>
<linearGradient id="paint14_linear" x1="63.2482" y1="47.8086" x2="78.9889" y2="47.8086" gradientUnits="userSpaceOnUse">
<stop offset="0.062" stop-color="#ED3D7F"/>
<stop offset="0.5385" stop-color="#ED3D7F"/>
<stop offset="0.7067" stop-color="#EF5587"/>
<stop offset="0.8729" stop-color="#F0658C"/>
<stop offset="1" stop-color="#F06B8E"/>
</linearGradient>
</defs>
</svg>
